<svg width="25" height="25" viewBox="0 0 25 25" fill="none" xmlns="http://www.w3.org/2000/svg">
<path d="M17.1875 12.5H7.8125V15.625H17.1875V12.5ZM21.5332 5.12695L16.7529 0.341797C16.5332 0.12207 16.2354 0 15.9229 0H15.625V6.25H21.875V5.95215C21.875 5.64453 21.7529 5.34668 21.5332 5.12695ZM14.0625 6.64062V0H4.29688C3.64746 0 3.125 0.522461 3.125 1.17188V23.8281C3.125 24.4775 3.64746 25 4.29688 25H20.7031C21.3525 25 21.875 24.4775 21.875 23.8281V7.8125H15.2344C14.5898 7.8125 14.0625 7.28516 14.0625 6.64062ZM6.25 3.51562C6.25 3.2998 6.4248 3.125 6.64062 3.125H10.5469C10.7627 3.125 10.9375 3.2998 10.9375 3.51562V4.29688C10.9375 4.5127 10.7627 4.6875 10.5469 4.6875H6.64062C6.4248 4.6875 6.25 4.5127 6.25 4.29688V3.51562ZM6.25 6.64062C6.25 6.4248 6.4248 6.25 6.64062 6.25H10.5469C10.7627 6.25 10.9375 6.4248 10.9375 6.64062V7.42188C10.9375 7.6377 10.7627 7.8125 10.5469 7.8125H6.64062C6.4248 7.8125 6.25 7.6377 6.25 7.42188V6.64062ZM18.75 21.4844C18.75 21.7002 18.5752 21.875 18.3594 21.875H14.4531C14.2373 21.875 14.0625 21.7002 14.0625 21.4844V20.7031C14.0625 20.4873 14.2373 20.3125 14.4531 20.3125H18.3594C18.5752 20.3125 18.75 20.4873 18.75 20.7031V21.4844ZM18.75 11.7188V16.4062C18.75 16.8379 18.4004 17.1875 17.9688 17.1875H7.03125C6.59961 17.1875 6.25 16.8379 6.25 16.4062V11.7188C6.25 11.2871 6.59961 10.9375 7.03125 10.9375H17.9688C18.4004 10.9375 18.75 11.2871 18.75 11.7188Z" fill="#939393"/>
</svg>
