<svg width="25" height="25" viewBox="0 0 25 25" fill="none" xmlns="http://www.w3.org/2000/svg">
<g clip-path="url(#clip0_38_99)">
<path d="M22.0405 6.53516H3.42719C2.99554 6.53516 2.64594 6.18555 2.64594 5.75391C2.64594 5.32227 2.99554 4.97266 3.42719 4.97266H22.1772C22.6088 4.97266 22.9584 4.62305 22.9584 4.19141C22.9584 2.89697 21.9091 1.84766 20.6147 1.84766H2.64594C0.919861 1.84766 -0.479065 3.24658 -0.479065 4.97266V20.5977C-0.479065 22.3237 0.919861 23.7227 2.64594 23.7227H22.0405C23.4086 23.7227 24.5209 22.6714 24.5209 21.3789V8.87891C24.5209 7.58643 23.4086 6.53516 22.0405 6.53516ZM19.8334 16.6914C18.9706 16.6914 18.2709 15.9917 18.2709 15.1289C18.2709 14.2661 18.9706 13.5664 19.8334 13.5664C20.6962 13.5664 21.3959 14.2661 21.3959 15.1289C21.3959 15.9917 20.6962 16.6914 19.8334 16.6914Z" fill="#939393"/>
</g>
<defs>
<clipPath id="clip0_38_99">
<rect width="25" height="25" fill="white"/>
</clipPath>
</defs>
</svg>
