<svg width="32" height="32" viewBox="0 0 32 32" fill="none" xmlns="http://www.w3.org/2000/svg">
<path d="M16 2C23.732 2 30 8.26801 30 16C30 23.732 23.732 30 16 30C8.26801 30 2 23.732 2 16C2 8.26801 8.26801 2 16 2Z" fill="#407EEE" stroke="white" stroke-width="4"/>
<path d="M14.5 17.5507C20.5 11.5507 22 10.762 22.5 11.0507C23.5 11.5507 22.5 13.0507 21.5 14.0507C20.5 15.0507 14.5 22.5507 12.5 22.0507C10.5 21.5507 10 17.0507 10 16.5507C10 16.0507 10 14.0507 12 14.0507C14 14.0507 14 18.0507 14.5 17.5507Z" fill="white"/>
</svg>
